<?xml version="1.0" encoding="utf-8"?>
<!-- Generator: Adobe Illustrator 16.0.0, SVG Export Plug-In . SVG Version: 6.00 Build 0)  -->
<!DOCTYPE svg PUBLIC "-//W3C//DTD SVG 1.1//EN" "http://www.w3.org/Graphics/SVG/1.1/DTD/svg11.dtd">
<svg version="1.1" id="Layer_1" xmlns="http://www.w3.org/2000/svg" xmlns:xlink="http://www.w3.org/1999/xlink" x="0px" y="0px"
	 width="52.667px" height="160.673px" viewBox="0 0 52.667 160.673" enable-background="new 0 0 52.667 160.673"
	 xml:space="preserve">
<g>
	<path fill="#E67817" stroke="#000000" stroke-miterlimit="10" d="M37.319,21.383l-22.03-0.063
		c-0.474,4.624-4.355,7.021-4.355,31.56c-0.292,3.817-1.202,6.126-3.312,8.591C1,67.506,1,76.703,1,87.973v64.834
		c0,3.748,7.704,6.783,17.225,6.783h16.111c9.521,0,17.225-3.035,17.225-6.783V87.973c0-11.27,0-20.467-6.622-26.502
		c-2.11-2.465-3.02-4.774-3.312-8.591C41.038,28.974,38.223,27.876,37.319,21.383L37.319,21.383z"/>
	<path fill="#FDF5AC" stroke="#000000" stroke-miterlimit="10" d="M4.525,138.091c0,1.197,10.23,2.166,22.873,2.166
		c12.137,0,21.958-0.969,21.958-2.166V80.424c0-0.99-9.15-1.792-20.458-1.792c-13.472,0-24.373,0.802-24.373,1.792V138.091z"/>
	<ellipse fill="#C1272D" stroke="#000000" stroke-miterlimit="10" cx="26.495" cy="109.257" rx="18.659" ry="28.834"/>
	<path fill="#009245" stroke="#000000" stroke-miterlimit="10" d="M46.773,112.924l-6.75,2.458c0,8.75-6.75,16.125-13.548,16.125
		c-6.556,0-11.452-6.375-11.962-9.37l-8.24,2.287v-19l6.303-1.079c0-8.295,7.322-16.591,13.899-16.588
		c5.55,0.003,10.048,5.375,11.651,9.453l8.647-2.619V112.924z"/>
	<path fill="#E67817" stroke="#000000" stroke-miterlimit="10" d="M36.786,16.913c0-0.691,0.074-1.578,0.782-2.547
		c0.578-0.844-1.936-5.845-2.813-7.266L17.603,7.163l0,0c-0.877,1.421-3.391,6.422-2.813,7.266c0.708,0.969,1.021,1.793,1.021,2.484
		H36.786L36.786,16.913z"/>
	<path fill="#D5C385" stroke="#000000" stroke-miterlimit="10" d="M36.846,7.101H15.512c-0.083-2.084,0.556-4.918,2.38-5.75h16.573
		C36.29,2.183,36.929,5.017,36.846,7.101z"/>
	<polygon fill="#C1272D" stroke="#000000" stroke-miterlimit="10" points="15.289,20.96 15.71,16.913 36.735,16.913 37.273,20.976 	
		"/>
	<polygon fill="#C1272D" stroke="#000000" stroke-miterlimit="10" points="41.07,41.423 11.429,41.423 11.939,36.548 40.606,36.548 
			"/>
	<path fill="#FDF5AC" stroke="#000000" stroke-miterlimit="10" d="M40.554,36.07c-0.313-7.594-1.969-12.531-3.25-14.75H15.116
		c-1.156,2-3.063,11-3.313,14.75H40.554z"/>
</g>
</svg>
