<?xml version="1.0" encoding="utf-8"?>
<!-- Generator: Adobe Illustrator 16.0.0, SVG Export Plug-In . SVG Version: 6.00 Build 0)  -->
<!DOCTYPE svg PUBLIC "-//W3C//DTD SVG 1.1//EN" "http://www.w3.org/Graphics/SVG/1.1/DTD/svg11.dtd">
<svg version="1.1" id="Layer_1" xmlns="http://www.w3.org/2000/svg" xmlns:xlink="http://www.w3.org/1999/xlink" x="0px" y="0px"
	 width="1440px" height="900px" viewBox="0 0 1440 900" enable-background="new 0 0 1440 900" xml:space="preserve">
<g>
	
		<rect x="1105.198" y="85.762" fill="#F7931E" stroke="#F7931E" stroke-width="2" stroke-miterlimit="10" width="29.062" height="90.6"/>
	
		<rect x="138.519" y="221.661" fill="#FBB03B" stroke="#FBB03B" stroke-width="4" stroke-miterlimit="10" width="14.53" height="112.822"/>
	
		<rect x="314.59" y="412.262" fill="#F7931E" stroke="#F7931E" stroke-width="4" stroke-miterlimit="10" width="17.094" height="70.086"/>
	
		<rect x="1047.934" y="384.911" fill="#FBB03B" stroke="#FBB03B" stroke-width="2" stroke-miterlimit="10" width="6.837" height="88.89"/>
	
		<rect x="659.567" y="60.975" fill="#FBB03B" stroke="#FBB03B" stroke-width="2" stroke-miterlimit="10" width="21.167" height="117.95"/>
	
		<rect x="779.554" y="535.341" fill="#F7931E" stroke="#F7931E" stroke-width="2" stroke-miterlimit="10" width="29.06" height="97.438"/>
	
		<rect x="171.853" y="548.161" fill="#F7931E" stroke="#F7931E" stroke-width="2" stroke-miterlimit="10" width="25.641" height="85.472"/>
	
		<rect x="1417.57" y="253.286" fill="#F7931E" stroke="#F7931E" stroke-width="2" stroke-miterlimit="10" width="20.512" height="85.471"/>
	
		<rect x="1348.791" y="542.178" fill="#F15A24" stroke="#F15A24" stroke-width="2" stroke-miterlimit="10" width="15.386" height="90.601"/>
	
		<rect x="735.963" y="251.576" fill="#FBB03B" stroke="#FBB03B" stroke-width="2" stroke-miterlimit="10" width="24.787" height="88.89"/>
	
		<rect x="246.212" y="382.694" fill="#FBB03B" stroke="#FBB03B" stroke-width="4" stroke-miterlimit="10" width="11.966" height="102.219"/>
	
		<rect x="1179.559" y="535.341" fill="#F15A24" stroke="#F15A24" stroke-width="4" stroke-miterlimit="10" width="30.769" height="101.711"/>
	
		<rect x="167.579" y="407.989" fill="#F15A24" stroke="#F15A24" stroke-width="4" stroke-miterlimit="10" width="34.188" height="78.633"/>
	
		<rect x="331.684" y="60.975" fill="#FBB03B" stroke="#FBB03B" stroke-width="4" stroke-miterlimit="10" width="30.77" height="120.515"/>
	
		<rect x="757.331" y="87.471" fill="#F7931E" stroke="#F7931E" stroke-width="4" stroke-miterlimit="10" width="44.444" height="87.181"/>
	<rect x="700.029" y="563.974" fill="#FBB03B" stroke="#FBB03B" stroke-miterlimit="10" width="20.513" height="74.36"/>
	<rect x="852.203" y="560.982" fill="#FBB03B" stroke="#FBB03B" stroke-miterlimit="10" width="23.933" height="80.344"/>
	<rect x="142.792" y="587.479" fill="#FBB03B" stroke="#FBB03B" stroke-miterlimit="10" width="10.257" height="41.025"/>
	<rect x="1306.057" y="91.745" fill="#F15A24" stroke="#F15A24" stroke-miterlimit="10" width="32.479" height="93.164"/>
	<rect x="623.996" y="401.151" fill="#FBB03B" stroke="#FBB03B" stroke-miterlimit="10" width="25.641" height="81.198"/>
	<rect x="993.231" y="401.151" fill="#F15A24" stroke="#F15A24" stroke-miterlimit="10" width="23.932" height="92.309"/>
	<rect x="926.564" y="379.142" fill="#FBB03B" stroke="#FBB03B" stroke-miterlimit="10" width="42.734" height="100.43"/>
	<rect x="1291.526" y="387.008" fill="#FBB03B" stroke="#FBB03B" stroke-miterlimit="10" width="29.06" height="100.255"/>
	
		<rect x="1082.121" y="562.691" fill="#F7931E" stroke="#F7931E" stroke-width="4" stroke-miterlimit="10" width="17.095" height="70.087"/>
	
		<rect x="1013.744" y="524.229" fill="#FBB03B" stroke="#FBB03B" stroke-width="4" stroke-miterlimit="10" width="11.966" height="111.112"/>
	
		<rect x="935.11" y="558.418" fill="#F7931E" stroke="#F7931E" stroke-width="4" stroke-miterlimit="10" width="34.188" height="78.634"/>
	
		<rect x="1011.181" y="102.001" fill="#F7931E" stroke="#F7931E" stroke-width="4" stroke-miterlimit="10" width="17.094" height="70.086"/>
	
		<rect x="942.804" y="63.54" fill="#F7931E" stroke="#F7931E" stroke-width="4" stroke-miterlimit="10" width="11.966" height="111.112"/>
	
		<rect x="864.17" y="97.728" fill="#F15A24" stroke="#F15A24" stroke-width="4" stroke-miterlimit="10" width="34.188" height="78.634"/>
	
		<rect x="844.512" y="411.407" fill="#F7931E" stroke="#F7931E" stroke-width="4" stroke-miterlimit="10" width="17.094" height="70.086"/>
	
		<rect x="776.135" y="383.589" fill="#FBB03B" stroke="#FBB03B" stroke-width="4" stroke-miterlimit="10" width="11.966" height="100.468"/>
	
		<rect x="697.5" y="407.134" fill="#FBB03B" stroke="#FBB03B" stroke-width="4" stroke-miterlimit="10" width="34.189" height="78.634"/>
	
		<rect x="179.118" y="245.593" fill="#FBB03B" stroke="#FBB03B" stroke-width="4" stroke-miterlimit="10" width="44.445" height="87.181"/>
	
		<rect x="432.967" y="260.124" fill="#F7931E" stroke="#F7931E" stroke-width="4" stroke-miterlimit="10" width="17.094" height="70.086"/>
	
		<rect x="364.59" y="221.661" fill="#F15A24" stroke="#F15A24" stroke-width="4" stroke-miterlimit="10" width="11.966" height="111.113"/>
	
		<rect x="285.956" y="255.849" fill="#FBB03B" stroke="#FBB03B" stroke-width="4" stroke-miterlimit="10" width="34.189" height="78.634"/>
	
		<rect x="241.084" y="547.307" fill="#F15A24" stroke="#F15A24" stroke-width="4" stroke-miterlimit="10" width="44.445" height="87.181"/>
	
		<rect x="468.438" y="562.691" fill="#F7931E" stroke="#F7931E" stroke-width="4" stroke-miterlimit="10" width="17.094" height="70.087"/>
	
		<rect x="426.557" y="530.894" fill="#FBB03B" stroke="#FBB03B" stroke-width="4" stroke-miterlimit="10" width="11.966" height="103.594"/>
	
		<rect x="347.923" y="557.563" fill="#FBB03B" stroke="#FBB03B" stroke-width="4" stroke-miterlimit="10" width="34.189" height="78.634"/>
	
		<rect x="776.135" y="237.794" fill="#FBB03B" stroke="#FBB03B" stroke-width="2" stroke-miterlimit="10" width="6.837" height="88.89"/>
	<rect x="820.58" y="243.029" fill="#FBB03B" stroke="#FBB03B" stroke-miterlimit="10" width="23.932" height="92.309"/>
	<rect x="654.766" y="232.024" fill="#F15A24" stroke="#F15A24" stroke-miterlimit="10" width="42.735" height="100.429"/>
	
		<rect x="572.713" y="264.29" fill="#F7931E" stroke="#F7931E" stroke-width="4" stroke-miterlimit="10" width="17.094" height="70.086"/>
	
		<rect x="1043.445" y="365.539" fill="#FBB03B" stroke="#FBB03B" stroke-width="4" stroke-miterlimit="10" width="14.53" height="121.938"/>
	
		<rect x="1084.045" y="398.586" fill="#F7931E" stroke="#F7931E" stroke-width="4" stroke-miterlimit="10" width="44.445" height="87.181"/>
	
		<rect x="1190.883" y="408.843" fill="#FBB03B" stroke="#FBB03B" stroke-width="4" stroke-miterlimit="10" width="34.189" height="78.634"/>
	
		<rect x="859.896" y="229.247" fill="#F7931E" stroke="#F7931E" stroke-width="2" stroke-miterlimit="10" width="29.062" height="97.437"/>
	<rect x="932.547" y="254.888" fill="#FBB03B" stroke="#FBB03B" stroke-miterlimit="10" width="23.933" height="80.343"/>
	
		<rect x="1015.454" y="252.324" fill="#F7931E" stroke="#F7931E" stroke-width="4" stroke-miterlimit="10" width="34.188" height="78.633"/>
	
		<rect x="106.467" y="78.07" fill="#F7931E" stroke="#F7931E" stroke-width="2" stroke-miterlimit="10" width="29.06" height="97.437"/>
	<rect x="179.118" y="103.71" fill="#F15A24" stroke="#F15A24" stroke-miterlimit="10" width="23.932" height="80.343"/>
	
		<rect x="262.025" y="101.147" fill="#FBB03B" stroke="#FBB03B" stroke-width="4" stroke-miterlimit="10" width="34.188" height="78.633"/>
	
		<rect x="465.874" y="63.54" fill="#FBB03B" stroke="#FBB03B" stroke-width="4" stroke-miterlimit="10" width="11.966" height="111.112"/>
	
		<rect x="387.24" y="97.728" fill="#FBB03B" stroke="#FBB03B" stroke-width="4" stroke-miterlimit="10" width="34.188" height="78.634"/>
	<rect x="350.487" y="401.578" fill="#F7931E" stroke="#F7931E" stroke-miterlimit="10" width="23.932" height="80.343"/>
	
		<rect x="479.122" y="382.694" fill="#FBB03B" stroke="#FBB03B" stroke-width="4" stroke-miterlimit="10" width="11.966" height="99.227"/>
	
		<rect x="400.488" y="404.997" fill="#FBB03B" stroke="#FBB03B" stroke-width="4" stroke-miterlimit="10" width="34.189" height="78.634"/>
	
		<rect x="1167.593" y="229.247" fill="#FBB03B" stroke="#FBB03B" stroke-width="4" stroke-miterlimit="10" width="11.966" height="102.672"/>
	
		<rect x="1088.959" y="254.995" fill="#FBB03B" stroke="#FBB03B" stroke-width="4" stroke-miterlimit="10" width="34.188" height="78.633"/>
	
		<rect x="564.593" y="539.881" fill="#FBB03B" stroke="#FBB03B" stroke-width="4" stroke-miterlimit="10" width="14.53" height="87.77"/>
	
		<rect x="605.191" y="538.76" fill="#F15A24" stroke="#F15A24" stroke-width="4" stroke-miterlimit="10" width="44.445" height="87.18"/>
	<rect x="1296.439" y="254.995" fill="#F7931E" stroke="#F7931E" stroke-miterlimit="10" width="23.932" height="80.343"/>
	
		<rect x="1346.441" y="258.414" fill="#FBB03B" stroke="#FBB03B" stroke-width="4" stroke-miterlimit="10" width="34.188" height="78.634"/>
	<rect x="1340.218" y="406.279" fill="#FBB03B" stroke="#FBB03B" stroke-miterlimit="10" width="23.932" height="80.343"/>
	
		<rect x="1388.937" y="396.877" fill="#F15A24" stroke="#F15A24" stroke-width="4" stroke-miterlimit="10" width="34.188" height="78.634"/>
	
		<rect x="1281.91" y="563.974" fill="#F7931E" stroke="#F7931E" stroke-width="2" stroke-miterlimit="10" width="29.06" height="75.642"/>
	<rect x="1394.065" y="547.307" fill="#FBB03B" stroke="#FBB03B" stroke-miterlimit="10" width="23.932" height="80.344"/>
	<rect x="139.374" y="232.024" fill="#C69C6D" stroke="#C69C6D" stroke-miterlimit="10" width="13.676" height="78.1"/>
	<rect x="110.353" y="93.027" fill="#C69C6D" stroke="#C69C6D" stroke-miterlimit="10" width="20.86" height="67.522"/>
	<rect x="333.821" y="87.738" fill="#C69C6D" stroke="#C69C6D" stroke-miterlimit="10" width="26.496" height="78.099"/>
	<rect x="661.604" y="97.3" fill="#C69C6D" stroke="#C69C6D" stroke-miterlimit="10" width="15.558" height="67.523"/>
	<rect x="465.02" y="80.901" fill="#C69C6D" stroke="#C69C6D" stroke-miterlimit="10" width="13.675" height="78.099"/>
	<rect x="263.018" y="108.839" fill="#C69C6D" stroke="#C69C6D" stroke-miterlimit="10" width="32.414" height="55.984"/>
	<rect x="245.358" y="390.307" fill="#C69C6D" stroke="#C69C6D" stroke-miterlimit="10" width="13.675" height="78.099"/>
	<rect x="168.688" y="415.36" fill="#C69C6D" stroke="#C69C6D" stroke-miterlimit="10" width="32.652" height="48.185"/>
	<rect x="478.694" y="390.307" fill="#C69C6D" stroke="#C69C6D" stroke-miterlimit="10" width="13.675" height="78.099"/>
	<rect x="174.583" y="553.718" fill="#C69C6D" stroke="#C69C6D" stroke-miterlimit="10" width="20.861" height="67.521"/>
	<rect x="363.735" y="249.172" fill="#C69C6D" stroke="#C69C6D" stroke-miterlimit="10" width="13.676" height="60.952"/>
	<rect x="182.082" y="254.46" fill="#C69C6D" stroke="#C69C6D" stroke-miterlimit="10" width="32.787" height="55.664"/>
	<rect x="426.13" y="545.01" fill="#C69C6D" stroke="#C69C6D" stroke-miterlimit="10" width="13.675" height="78.1"/>
	<rect x="247.749" y="553.718" fill="#C69C6D" stroke="#C69C6D" stroke-miterlimit="10" width="31.371" height="67.521"/>
	<g>
		
			<rect x="518.011" y="2" fill="#42210B" stroke="#42210B" stroke-width="4" stroke-miterlimit="10" width="13.676" height="743.967"/>
		
			<rect x="1247.936" y="2" fill="#42210B" stroke="#42210B" stroke-width="4" stroke-miterlimit="10" width="13.675" height="743.967"/>
		<polygon fill="#603813" stroke="#603813" stroke-width="4" stroke-miterlimit="10" points="1420.213,804.408 3,804.408 
			20.867,745.967 1438.082,745.967 		"/>
		
			<rect x="88.945" y="176.362" fill="#42210B" stroke="#42210B" stroke-width="4" stroke-miterlimit="10" width="1349.137" height="8.547"/>
		
			<rect x="88.945" y="330.209" fill="#42210B" stroke="#42210B" stroke-width="4" stroke-miterlimit="10" width="1349.137" height="8.547"/>
		
			<rect x="88.945" y="482.349" fill="#42210B" stroke="#42210B" stroke-width="4" stroke-miterlimit="10" width="1349.137" height="8.547"/>
		
			<rect x="88.945" y="632.778" fill="#42210B" stroke="#42210B" stroke-width="4" stroke-miterlimit="10" width="1349.137" height="8.548"/>
	</g>
	<rect x="1012.89" y="540.736" fill="#C69C6D" stroke="#C69C6D" stroke-miterlimit="10" width="13.676" height="78.099"/>
	<rect x="1179.559" y="553.718" fill="#C69C6D" stroke="#C69C6D" stroke-miterlimit="10" width="32.187" height="67.521"/>
	<rect x="780.835" y="548.429" fill="#C69C6D" stroke="#C69C6D" stroke-miterlimit="10" width="26.496" height="65.545"/>
	<rect x="1298.275" y="402.433" fill="#C69C6D" stroke="#C69C6D" stroke-miterlimit="10" width="15.562" height="67.522"/>
	<rect x="565.02" y="539.881" fill="#C69C6D" stroke="#C69C6D" stroke-miterlimit="10" width="13.676" height="78.1"/>
	<rect x="1090.061" y="266.32" fill="#C69C6D" stroke="#C69C6D" stroke-miterlimit="10" width="32.412" height="50.214"/>
	<rect x="941.094" y="87.738" fill="#C69C6D" stroke="#C69C6D" stroke-miterlimit="10" width="13.676" height="78.099"/>
	<rect x="698.269" y="420.221" fill="#C69C6D" stroke="#C69C6D" stroke-miterlimit="10" width="32.652" height="48.184"/>
	<rect x="776.135" y="401.578" fill="#C69C6D" stroke="#C69C6D" stroke-miterlimit="10" width="13.675" height="70.647"/>
	<rect x="401.189" y="413.918" fill="#C69C6D" stroke="#C69C6D" stroke-miterlimit="10" width="32.787" height="55.663"/>
	<rect x="935.11" y="563.974" fill="#C69C6D" stroke="#C69C6D" stroke-miterlimit="10" width="32.373" height="57.426"/>
	<rect x="314.59" y="412.262" fill="#C69C6D" stroke="#C69C6D" stroke-miterlimit="10" width="15.985" height="60.952"/>
	<rect x="757.331" y="101.147" fill="#C69C6D" stroke="#C69C6D" stroke-miterlimit="10" width="44.444" height="64.69"/>
	<rect x="824.767" y="252.003" fill="#C69C6D" stroke="#C69C6D" stroke-miterlimit="10" width="15.559" height="67.522"/>
	<rect x="1107.626" y="97.853" fill="#C69C6D" stroke="#C69C6D" stroke-miterlimit="10" width="26.634" height="62.696"/>
	<rect x="388.128" y="104.103" fill="#C69C6D" stroke="#C69C6D" stroke-miterlimit="10" width="32.415" height="55.984"/>
	<rect x="1043.445" y="390.307" fill="#C69C6D" stroke="#C69C6D" stroke-miterlimit="10" width="16.881" height="78.099"/>
	<rect x="348.691" y="572.788" fill="#C69C6D" stroke="#C69C6D" stroke-miterlimit="10" width="32.653" height="48.185"/>
	<rect x="1011.395" y="106.355" fill="#C69C6D" stroke="#C69C6D" stroke-miterlimit="10" width="20.086" height="60.952"/>
	<rect x="286.658" y="263.595" fill="#C69C6D" stroke="#C69C6D" stroke-miterlimit="10" width="32.787" height="55.663"/>
	<rect x="629.979" y="408.843" fill="#C69C6D" stroke="#C69C6D" stroke-miterlimit="10" width="13.675" height="50.429"/>
	<rect x="863.996" y="248.478" fill="#C69C6D" stroke="#C69C6D" stroke-miterlimit="10" width="20.86" height="67.522"/>
	<rect x="1085.968" y="413.918" fill="#C69C6D" stroke="#C69C6D" stroke-miterlimit="10" width="42.522" height="54.487"/>
	<rect x="934.313" y="396.877" fill="#C69C6D" stroke="#C69C6D" stroke-miterlimit="10" width="27.151" height="73.078"/>
	<rect x="1348.047" y="258.414" fill="#C69C6D" stroke="#C69C6D" stroke-miterlimit="10" width="29.883" height="56.999"/>
	<rect x="1081.264" y="582.917" fill="#C69C6D" stroke="#C69C6D" stroke-miterlimit="10" width="16.813" height="37.821"/>
	<rect x="1399.193" y="563.974" fill="#C69C6D" stroke="#C69C6D" stroke-miterlimit="10" width="13.675" height="54.007"/>
	<rect x="1389.705" y="406.279" fill="#C69C6D" stroke="#C69C6D" stroke-miterlimit="10" width="38.119" height="62.126"/>
	<rect x="739.222" y="256.598" fill="#C69C6D" stroke="#C69C6D" stroke-miterlimit="10" width="20.406" height="60.952"/>
	<rect x="1307.553" y="116.371" fill="#C69C6D" stroke="#C69C6D" stroke-miterlimit="10" width="27.563" height="44.979"/>
	<rect x="1342.81" y="420.221" fill="#C69C6D" stroke="#C69C6D" stroke-miterlimit="10" width="13.674" height="52.245"/>
	<rect x="1169.573" y="243.029" fill="#C69C6D" stroke="#C69C6D" stroke-miterlimit="10" width="9.026" height="67.095"/>
	<rect x="1190.883" y="415.36" fill="#C69C6D" stroke="#C69C6D" stroke-miterlimit="10" width="34.189" height="53.045"/>
	<rect x="1014.699" y="260.124" fill="#C69C6D" stroke="#C69C6D" stroke-miterlimit="10" width="27.702" height="55.93"/>
	<rect x="937.675" y="266.32" fill="#C69C6D" stroke="#C69C6D" stroke-miterlimit="10" width="13.676" height="52.377"/>
	<rect x="433.412" y="271.074" fill="#C69C6D" stroke="#C69C6D" stroke-miterlimit="10" width="16.208" height="45.113"/>
	<rect x="857.332" y="569.529" fill="#C69C6D" stroke="#C69C6D" stroke-miterlimit="10" width="13.676" height="45.887"/>
	<rect x="604.25" y="552.114" fill="#C69C6D" stroke="#C69C6D" stroke-miterlimit="10" width="47.096" height="59.296"/>
	<rect x="471.002" y="560.422" fill="#C69C6D" stroke="#C69C6D" stroke-miterlimit="10" width="13.675" height="60.951"/>
	<rect x="573.063" y="262.714" fill="#C69C6D" stroke="#C69C6D" stroke-miterlimit="10" width="16.393" height="57.425"/>
	<rect x="845.365" y="420.221" fill="#C69C6D" stroke="#C69C6D" stroke-miterlimit="10" width="13.677" height="52.245"/>
	<rect x="1423.125" y="271.074" fill="#C69C6D" stroke="#C69C6D" stroke-miterlimit="10" width="10.43" height="45.247"/>
	<rect x="1299.431" y="265.518" fill="#C69C6D" stroke="#C69C6D" stroke-miterlimit="10" width="13.251" height="47.331"/>
	<rect x="702.505" y="584.06" fill="#C69C6D" stroke="#C69C6D" stroke-miterlimit="10" width="15.559" height="39.49"/>
	<rect x="777.78" y="254.995" fill="#C69C6D" stroke="#C69C6D" stroke-miterlimit="10" width="3.549" height="55.129"/>
	<rect x="865.058" y="104.103" fill="#C69C6D" stroke="#C69C6D" stroke-miterlimit="10" width="32.412" height="55.984"/>
	<rect x="146.211" y="589.788" fill="#C69C6D" stroke="#C69C6D" stroke-miterlimit="10" width="3.418" height="25.628"/>
	<rect x="1291.266" y="572.788" fill="#C69C6D" stroke="#C69C6D" stroke-miterlimit="10" width="16.326" height="41.427"/>
	<rect x="358.18" y="408.977" fill="#C69C6D" stroke="#C69C6D" stroke-miterlimit="10" width="13.675" height="60.951"/>
	<rect x="657.176" y="245.273" fill="#C69C6D" stroke="#C69C6D" stroke-miterlimit="10" width="34.056" height="64.851"/>
	<rect x="1352.211" y="563.974" fill="#C69C6D" stroke="#C69C6D" stroke-miterlimit="10" width="8.545" height="54.007"/>
	<rect x="184.246" y="116.371" fill="#C69C6D" stroke="#C69C6D" stroke-miterlimit="10" width="13.676" height="42.628"/>
	<rect x="116.294" y="47.696" fill="#603813" stroke="#603813" stroke-miterlimit="10" width="9.404" height="8.894"/>
	<rect x="186.38" y="80.46" fill="#603813" stroke="#603813" stroke-miterlimit="10" width="9.404" height="8.895"/>
	<rect x="274.417" y="65.93" fill="#603813" stroke="#603813" stroke-miterlimit="10" width="9.403" height="8.894"/>
	<rect x="344.503" y="26.518" fill="#603813" stroke="#603813" stroke-miterlimit="10" width="9.403" height="8.895"/>
	<rect x="399.633" y="69.175" fill="#603813" stroke="#603813" stroke-miterlimit="10" width="9.404" height="8.895"/>
	<rect x="467.156" y="30.631" fill="#603813" stroke="#603813" stroke-miterlimit="10" width="9.404" height="8.895"/>
	<rect x="664.68" y="35.078" fill="#603813" stroke="#603813" stroke-miterlimit="10" width="9.403" height="8.895"/>
	<rect x="774.853" y="53.201" fill="#603813" stroke="#603813" stroke-miterlimit="10" width="9.401" height="8.895"/>
	<rect x="298.35" y="227.47" fill="#603813" stroke="#603813" stroke-miterlimit="10" width="9.403" height="8.895"/>
	<rect x="939.813" y="231.637" fill="#603813" stroke="#603813" stroke-miterlimit="10" width="9.401" height="8.894"/>
	<rect x="827.845" y="219.324" fill="#603813" stroke="#603813" stroke-miterlimit="10" width="9.401" height="8.895"/>
	<rect x="869.726" y="204.901" fill="#603813" stroke="#603813" stroke-miterlimit="10" width="9.401" height="8.894"/>
	<rect x="576.558" y="234.028" fill="#603813" stroke="#603813" stroke-miterlimit="10" width="9.403" height="8.894"/>
	<rect x="365.871" y="198.063" fill="#603813" stroke="#603813" stroke-miterlimit="10" width="9.403" height="8.894"/>
	<rect x="436.813" y="228.219" fill="#603813" stroke="#603813" stroke-miterlimit="10" width="9.404" height="8.894"/>
	<rect x="671.432" y="212.767" fill="#603813" stroke="#603813" stroke-miterlimit="10" width="9.404" height="8.894"/>
	<rect x="777.63" y="214.622" fill="#603813" stroke="#603813" stroke-miterlimit="10" width="4.554" height="4.307"/>
	<rect x="197.065" y="216.186" fill="#603813" stroke="#603813" stroke-miterlimit="10" width="9.404" height="8.894"/>
	<rect x="744.725" y="222.743" fill="#603813" stroke="#603813" stroke-miterlimit="10" width="9.401" height="8.894"/>
	<rect x="876.563" y="65.818" fill="#603813" stroke="#603813" stroke-miterlimit="10" width="9.401" height="8.894"/>
	<rect x="944.086" y="35.413" fill="#603813" stroke="#603813" stroke-miterlimit="10" width="9.401" height="8.894"/>
	<rect x="1317.596" y="67.813" fill="#603813" stroke="#603813" stroke-miterlimit="10" width="9.401" height="8.895"/>
	<rect x="1016.736" y="77.103" fill="#603813" stroke="#603813" stroke-miterlimit="10" width="9.401" height="8.894"/>
	<rect x="1115.027" y="58.98" fill="#603813" stroke="#603813" stroke-miterlimit="10" width="9.401" height="8.894"/>
	<rect x="141.508" y="198.063" fill="#603813" stroke="#603813" stroke-miterlimit="10" width="9.404" height="8.894"/>
	<rect x="1027.848" y="224.052" fill="#603813" stroke="#603813" stroke-miterlimit="10" width="9.401" height="8.894"/>
	<rect x="180.313" y="378.113" fill="#603813" stroke="#603813" stroke-miterlimit="10" width="9.403" height="8.895"/>
	<rect x="180.313" y="524.229" fill="#603813" stroke="#603813" stroke-miterlimit="10" width="9.403" height="8.895"/>
	<rect x="247.493" y="354.587" fill="#603813" stroke="#603813" stroke-miterlimit="10" width="9.403" height="8.894"/>
	<rect x="357.751" y="377.218" fill="#603813" stroke="#603813" stroke-miterlimit="10" width="9.404" height="8.895"/>
	<rect x="318.436" y="385.859" fill="#603813" stroke="#603813" stroke-miterlimit="10" width="9.404" height="8.894"/>
	<rect x="480.832" y="360.458" fill="#603813" stroke="#603813" stroke-miterlimit="10" width="9.403" height="8.895"/>
	<rect x="412.882" y="378.581" fill="#603813" stroke="#603813" stroke-miterlimit="10" width="9.403" height="8.895"/>
	<rect x="709.895" y="377.085" fill="#603813" stroke="#603813" stroke-miterlimit="10" width="9.403" height="8.894"/>
	<rect x="632.114" y="377.218" fill="#603813" stroke="#603813" stroke-miterlimit="10" width="9.403" height="8.895"/>
	<rect x="777.483" y="356.644" fill="#603813" stroke="#603813" stroke-miterlimit="10" width="9.401" height="8.895"/>
	<rect x="1102.926" y="229.247" fill="#603813" stroke="#603813" stroke-miterlimit="10" width="9.404" height="8.895"/>
	<rect x="847.503" y="385.859" fill="#603813" stroke="#603813" stroke-miterlimit="10" width="9.402" height="8.894"/>
	<rect x="943.185" y="356.644" fill="#603813" stroke="#603813" stroke-miterlimit="10" width="9.404" height="8.895"/>
	<rect x="1000.496" y="376.19" fill="#603813" stroke="#603813" stroke-miterlimit="10" width="9.402" height="8.895"/>
	<rect x="1101.566" y="370.248" fill="#603813" stroke="#603813" stroke-miterlimit="10" width="9.402" height="8.894"/>
	<rect x="1348.364" y="381.532" fill="#603813" stroke="#603813" stroke-miterlimit="10" width="9.401" height="8.895"/>
	<rect x="1203.278" y="381.532" fill="#603813" stroke="#603813" stroke-miterlimit="10" width="9.401" height="8.895"/>
	<rect x="1168.875" y="202.511" fill="#603813" stroke="#603813" stroke-miterlimit="10" width="9.401" height="8.894"/>
	<rect x="1303.707" y="229.247" fill="#603813" stroke="#603813" stroke-miterlimit="10" width="9.4" height="8.895"/>
	<rect x="1400.646" y="367.929" fill="#603813" stroke="#603813" stroke-miterlimit="10" width="9.401" height="8.895"/>
	<rect x="1358.836" y="223.771" fill="#603813" stroke="#603813" stroke-miterlimit="10" width="9.401" height="8.895"/>
	<rect x="1423.64" y="232.666" fill="#603813" stroke="#603813" stroke-miterlimit="10" width="9.401" height="8.894"/>
	<rect x="998.359" y="419.794" fill="#C69C6D" stroke="#C69C6D" stroke-miterlimit="10" width="13.676" height="45.888"/>
	<rect x="258.731" y="515.843" fill="#603813" stroke="#603813" stroke-miterlimit="10" width="9.404" height="8.895"/>
	<rect x="567.157" y="514.48" fill="#603813" stroke="#603813" stroke-miterlimit="10" width="9.402" height="8.895"/>
	<rect x="789.383" y="511.062" fill="#603813" stroke="#603813" stroke-miterlimit="10" width="9.401" height="8.895"/>
	<rect x="427.837" y="504.558" fill="#603813" stroke="#603813" stroke-miterlimit="10" width="9.406" height="8.895"/>
	<rect x="705.582" y="538.854" fill="#603813" stroke="#603813" stroke-miterlimit="10" width="9.405" height="8.894"/>
	<rect x="362.453" y="527.647" fill="#603813" stroke="#603813" stroke-miterlimit="10" width="9.402" height="8.896"/>
	<rect x="472.285" y="537.731" fill="#603813" stroke="#603813" stroke-miterlimit="10" width="9.401" height="8.894"/>
	<rect x="622.714" y="506.615" fill="#603813" stroke="#603813" stroke-miterlimit="10" width="9.401" height="8.893"/>
	<rect x="1014.776" y="502.167" fill="#603813" stroke="#603813" stroke-miterlimit="10" width="9.401" height="8.895"/>
	<rect x="947.504" y="525.258" fill="#603813" stroke="#603813" stroke-miterlimit="10" width="9.402" height="8.895"/>
	<rect x="859.469" y="538.854" fill="#603813" stroke="#603813" stroke-miterlimit="10" width="9.402" height="8.894"/>
	<rect x="1351.784" y="522.346" fill="#603813" stroke="#603813" stroke-miterlimit="10" width="9.401" height="8.895"/>
	<rect x="1086.999" y="534.313" fill="#603813" stroke="#603813" stroke-miterlimit="10" width="9.402" height="8.895"/>
	<rect x="1190.949" y="510.033" fill="#603813" stroke="#603813" stroke-miterlimit="10" width="9.401" height="8.895"/>
	<rect x="1401.328" y="527.647" fill="#603813" stroke="#603813" stroke-miterlimit="10" width="9.405" height="8.896"/>
	<rect x="1291.74" y="537.05" fill="#603813" stroke="#603813" stroke-miterlimit="10" width="9.402" height="8.895"/>
	<rect x="145.644" y="574.054" fill="#603813" stroke="#603813" stroke-miterlimit="10" width="4.554" height="4.307"/>
	<rect x="1301.354" y="367.296" fill="#603813" stroke="#603813" stroke-miterlimit="10" width="9.404" height="8.895"/>
</g>
</svg>
